<svg xmlns="http://www.w3.org/2000/svg" viewBox="0 0 128 128">
  <defs><linearGradient id="g" x1="0" y1="0" x2="1" y2="1"><stop stop-color="#f4373f"/><stop offset="1" stop-color="#9d0610"/></linearGradient></defs>
  <rect width="128" height="128" rx="28" fill="url(#g)"/>
  <path d="M39 26h51a10 10 0 0 1 10 10v66H39a11 11 0 0 1-11-11V37a11 11 0 0 1 11-11Z" fill="#fff" opacity=".97"/>
  <path d="m43 49 7 7 13-16M43 74l7 7 13-16M70 49h18M70 74h18M43 99l7 7 13-16M70 99h18" fill="none" stroke="#b50d17" stroke-width="7" stroke-linecap="round" stroke-linejoin="round"/>
</svg>
