<svg xmlns="http://www.w3.org/2000/svg" viewBox="0 0 128 128" role="img" aria-label="Navigraph">
  <defs>
    <linearGradient id="app-bg" x1="16" y1="10" x2="112" y2="122" gradientUnits="userSpaceOnUse">
      <stop stop-color="#263754"/>
      <stop offset="0.58" stop-color="#182238"/>
      <stop offset="1" stop-color="#101827"/>
    </linearGradient>
    <linearGradient id="red-point" x1="64" y1="15" x2="64" y2="58" gradientUnits="userSpaceOnUse">
      <stop stop-color="#f0483c"/>
      <stop offset="1" stop-color="#bf292a"/>
    </linearGradient>
    <linearGradient id="light-point" x1="30" y1="43" x2="98" y2="91" gradientUnits="userSpaceOnUse">
      <stop stop-color="#f3f6f7"/>
      <stop offset="1" stop-color="#aeb8c2"/>
    </linearGradient>
  </defs>
  <rect width="128" height="128" rx="28" fill="url(#app-bg)"/>
  <g transform="translate(64 63)">
    <path d="M0 -50 15 -22 0 -10 -15 -22Z" fill="url(#red-point)"/>
    <path d="M-55 -1 -19 -18 -7 -5 -31 14Z" fill="url(#light-point)"/>
    <path d="M55 -1 19 -18 7 -5 31 14Z" fill="url(#light-point)"/>
    <path d="M0 55 -17 18 -4 6 17 18Z" fill="url(#light-point)"/>
    <path d="M-4 -7 0 -10 4 -7 7 -5 4 0 0 4 -4 0 -7 -5Z" fill="#0f1727"/>
    <path d="M0 -50 15 -22 0 -10Z" fill="#e23b34" opacity="0.72"/>
    <path d="M55 -1 19 -18 7 -5Z" fill="#d7dde2" opacity="0.78"/>
    <path d="M0 55 -4 6 17 18Z" fill="#c7cfd6" opacity="0.7"/>
  </g>
</svg>
