<svg xmlns="http://www.w3.org/2000/svg" viewBox="0 0 128 128" role="img" aria-label="Weather radar">
  <defs>
    <linearGradient id="radar-bg" x1="17" y1="12" x2="111" y2="119" gradientUnits="userSpaceOnUse">
      <stop stop-color="#1d3851"/>
      <stop offset="0.55" stop-color="#142538"/>
      <stop offset="1" stop-color="#0b1625"/>
    </linearGradient>
    <linearGradient id="scan" x1="34" y1="29" x2="98" y2="100" gradientUnits="userSpaceOnUse">
      <stop stop-color="#72f0a3"/>
      <stop offset="1" stop-color="#1fa9ff"/>
    </linearGradient>
    <linearGradient id="storm" x1="54" y1="36" x2="88" y2="71" gradientUnits="userSpaceOnUse">
      <stop stop-color="#ffd43b"/>
      <stop offset="0.55" stop-color="#ff7a1a"/>
      <stop offset="1" stop-color="#e82f44"/>
    </linearGradient>
  </defs>
  <rect width="128" height="128" rx="28" fill="url(#radar-bg)"/>
  <circle cx="64" cy="64" r="43" fill="none" stroke="#d7f5ff" stroke-opacity="0.18" stroke-width="4"/>
  <circle cx="64" cy="64" r="28" fill="none" stroke="#d7f5ff" stroke-opacity="0.16" stroke-width="3"/>
  <circle cx="64" cy="64" r="12" fill="none" stroke="#d7f5ff" stroke-opacity="0.18" stroke-width="3"/>
  <path d="M64 64 97 35a45 45 0 0 1 11 37Z" fill="url(#scan)" opacity="0.72"/>
  <path d="M64 64 96 35" fill="none" stroke="#72f0a3" stroke-width="5" stroke-linecap="round"/>
  <path d="M44 78c9-16 21-5 30-18 6-9 19-5 21 6 2 12-9 24-27 22-11-1-18 5-24-10Z" fill="url(#storm)" opacity="0.95"/>
  <path d="M31 58c12-7 21-7 32 0 10 7 20 7 32 0" fill="none" stroke="#e8f8ff" stroke-opacity="0.72" stroke-width="5" stroke-linecap="round"/>
  <path d="M37 45c9-5 18-5 27 0 8 5 17 5 27 0" fill="none" stroke="#e8f8ff" stroke-opacity="0.42" stroke-width="4" stroke-linecap="round"/>
  <circle cx="64" cy="64" r="5" fill="#f7fbff"/>
</svg>
